<?xml version="1.0" encoding="UTF-8"?><svg id="Capa_1" xmlns="http://www.w3.org/2000/svg" viewBox="0 0 1066.5 1011.32"><defs><style>.cls-1{fill:#5d4d3b;stroke-width:0px;}</style></defs><path class="cls-1" d="M0,599.71c4.95-14.03,10.06-27.94,21.25-38.56,10.07-9.56,22.16-15.25,35.29-19.16,28.56-8.49,57.05-17.24,85.68-25.48,6.7-1.93,11.39-5.13,15.41-10.97,6.83-9.93,10.83-22.66,25.69-25.31,4.79-.85,1.55-22.1-4.19-26.73-21.96-17.74-38.98-39.32-50.94-64.9-8.14-17.41-13.75-35.57-15.57-54.72-.56-5.87-2.65-8.89-8.16-11.56-32.41-15.66-40.32-55.03-16.59-82.16,3.61-4.13,4.43-8.18,4.45-13.17.1-29.5-1.18-59.1.86-88.47C98.77,57.69,158.52,1.61,239.51.45c47.54-.68,95.11-.5,142.66,0,33.48.35,57.53,15.73,69.77,47.65,1.45,3.77,3.75,6.41,6.82,8.85,23.22,18.52,34.5,42.91,34.69,72.41.21,31.93.17,63.87-.04,95.8-.04,6.55,1.5,11.54,6.01,16.76,22.1,25.56,13.61,65.2-17.29,79.97-6.45,3.08-8.4,6.89-9.19,13.17-5.84,46.89-27.18,85.71-63.45,115.56-9.96,8.2-8.33,17.09-8.29,26.82,0,1.11,1.11,3.08,1.9,3.19,13.56,1.81,17.83,13.52,23.74,22.91,4.58,7.29,10.27,11.12,18.45,13.45,29.65,8.46,59.19,17.31,88.59,26.61,31.48,9.95,51.46,35.85,51.57,65.69.04,10.5-4.79,16.84-13.52,17.73-9.38.96-16.34-4.41-17.3-15.23-2-22.57-14.84-34.6-35.78-40.29-18.38-4.99-36.58-10.68-54.77-16.36-4.52-1.41-6.43-1.16-9.7,3.41-20.99,29.35-43.75,57.37-67.34,84.64-9.89,11.44-25.82,13.36-39.04,5.51-10.98-6.52-20.93-14.78-31.41-22.17-2.16-1.52-3.85-4.07-7.23-3.87-1.93,3.53-.89,7.37-.9,11-.07,115.93-.06,231.87-.06,347.8,0,2.43,0,4.86,0,7.29-.05,15.11-5.19,22.57-15.53,22.56-10.3-.01-15.7-7.7-15.7-22.6-.02-118.02,0-236.03,0-354.05,0-3.8,0-7.6,0-11.27-3.87-1.89-5.36,1.35-7.34,2.75-10.21,7.17-19.84,15.26-30.48,21.7-15.01,9.09-31.24,6.98-42.28-6.33-22.79-27.48-45.94-54.72-66.32-84.1-2.31-3.34-4.07-3.86-7.5-2.8-21.85,6.74-43.89,12.89-65.56,20.17-17.17,5.77-26.4,20.73-26.42,40.6-.06,76.71-.02,153.42-.02,230.13,0,48.94-.03,97.88.02,146.83,0,7.88-2.05,14.69-10.04,17.65-8.31,3.08-14.86.13-19.53-7.29-.31-.49-1.12-.66-1.69-.98,0-134,0-268,0-401.99ZM308.66,31.57c-22.9,0-45.81-.26-68.71.05-64.12.85-111.33,44.8-115.79,108.68-1.5,21.42-.76,43.01-.56,64.52.19,20.48-3.9,17.14,18.4,17.74,6.27.17,9.31-1.61,10.41-8.31,2.46-15.04,5.7-29.96,8.88-44.87,5.93-27.82,21.68-37.77,49.12-30.93,20.94,5.22,42.14,8.5,63.69,9.28,41.52,1.5,82.43-1.47,121.93-15.94,10.73-3.93,19.55.19,22.33,8.84,2.9,9.05-1.48,16.56-12.45,20.52-10.09,3.65-20.2,7.22-30.76,9.45-57.18,12.09-114.24,12.44-171.09-1.85-7.82-1.97-11.23-.48-12.55,7.94-2.41,15.39-5.69,30.66-8.94,45.91-4.36,20.46-17.26,30.83-38.13,31.1-6.94.09-13.93-.32-20.8.36-9.72.97-17.19,9.18-17.95,18.7-.8,9.94,4.61,20.77,13.94,21.64,19.5,1.81,23.92,13.38,23.31,29.91-.09,2.4.44,4.83.71,7.25,7.62,68.19,67.73,125.77,136.24,130.51,87.84,6.08,159.28-57.66,163.65-146.01.67-13.54,3.93-17.65,17.55-20.16,9.47-1.75,15.76-6.39,18.38-15.87,2.7-9.73-.9-17.1-8.59-22.6-6.63-4.74-8.79-10.84-8.74-18.77.23-35.4-.08-70.8.16-106.19.15-22.43-7.99-40.45-26.56-53.39-5.54-3.86-9.63-8.41-11.71-15.24-6.96-22.84-19.66-32.1-43.54-32.24-23.94-.14-47.89-.03-71.84-.03ZM369.68,493.24c.12-18.13.45-16.39-13.31-11.06-16.89,6.54-34.5,10.2-52.63,11.2-27.42,1.51-53.85-2.76-79.34-13.04-2.39-.96-5.44-4.58-7.89-.22-3.36,5.98,1.09,25.93,6.51,30.45,21.04,17.55,42.24,34.91,63,52.78,5.21,4.48,8.34,4.72,13.68.09,19.66-17.02,39.64-33.7,59.9-49.99,7.32-5.89,12.53-11.87,10.07-20.22ZM186.89,521.27c-2.46-.34-3.26,1.3-4.19,2.69-5.39,8.04-10.6,16.22-16.21,24.1-2.62,3.68-.19,5.7,1.69,8.05,16.19,20.28,32.49,40.47,48.53,60.88,3.52,4.48,6.43,5.25,11.08,1.62,11.18-8.73,22.46-17.34,34.05-25.51,5.43-3.83,4.43-6.01-.07-9.71-23.8-19.55-47.39-39.35-71.05-59.06-1.33-1.1-2.69-2.16-3.83-3.07ZM318.13,588.52c14.16,10.63,27.75,20.71,41.2,30.98,5,3.82,7.39.35,10.05-2.99,11.24-14.07,22.47-28.14,33.73-42.19q19.01-23.71,1.36-48.37c-.4-.56-.8-1.14-1.11-1.75-2.01-3.88-4.2-3.4-7.24-.85-25.69,21.58-51.48,43.04-77.99,65.16Z"/><path class="cls-1" d="M942.91,894.03c0-31.24-.02-62.48.03-93.73,0-3.81-.05-7.71.72-11.4,1.55-7.41,6.89-11.29,14.06-11.72,6.81-.42,12.22,3,14.66,9.5,1.31,3.47,1.6,7.45,1.72,11.22.51,16.1.43,16.1,16.97,16.1,12.5,0,25-.16,37.49.07,4.82.09,6.76-1.37,6.71-6.46-.23-23.6.33-47.22-.35-70.81-.51-17.64-10.04-30.05-26.25-36.68-30.15-12.33-60.58-23.95-90.66-36.46-6.64-2.76-8.57.57-11.27,4.86-21.14,33.62-47.23,62.84-80.6,84.46-37.33,24.19-30.83,24.32-68.47-.13-32.74-21.27-58.69-49.73-79.26-82.88-4.27-6.88-7.92-8.4-15.63-5.15-27.14,11.44-54.62,22.06-81.96,33.02-23.81,9.54-31.84,21.17-31.96,46.55-.1,20.48.17,40.96-.12,61.44-.09,6.34,2.07,8.45,8.42,8.29,15.26-.38,30.55-.3,45.82-.03,5.36.09,7.62-1.57,7.22-7.11-.35-4.83-.28-9.73.09-14.57.7-9.09,7.11-15.69,15.25-15.33,8.79.39,14.01,5.48,15.46,14.11.51,3.05.36,6.23.36,9.34.02,62.48.01,124.97.01,187.45,0,2.08.09,4.17-.06,6.25-.77,10.55-7.07,17.23-15.98,17.03-9.01-.2-15.09-6.84-15.13-17.64-.16-44.09-.07-88.17-.08-132.26,0-16.11,0-16.27-15.67-16.05-8.63.12-19.83-3.68-25.21,1.49-5.91,5.69-1.94,17.12-1.99,26.02-.22,38.18-.08,76.37-.12,114.55,0,3.81.04,7.68-.6,11.41-1.36,8.03-6.95,12.08-14.57,12.28-7.15.18-12.88-3.36-14.69-10.77-1.05-4.32-1.31-8.91-1.32-13.38-.09-44.09-.13-88.17.04-132.26.02-5.81-.63-9.54-7.55-10.91-7.37-1.46-10.62-7.68-10.63-14.86-.04-34.01-2.51-68.16,1.12-101.97,2.99-27.89,20.52-46.16,46.4-56.49,37.98-15.16,75.92-30.4,113.88-45.59,21.1-8.44,21.68-11.35,23.45-33.77,1.54-19.48-4.36-31.21-20.91-43.08-40.06-28.74-62.99-69.35-69.4-118.63-.96-7.36-3.12-12.05-10.65-15.66-16.78-8.03-27.72-22.46-27.99-40.97-.62-41.86-4.49-83.94,4.78-125.5,12.84-57.58,43.76-102.78,92.66-135.48,8.88-5.94,13.51-10.96,13.47-23.3-.11-32.9,19.03-55.52,46.01-71.83,45.58-27.55,109.74-19.1,146.7,19.28,15.29,15.87,23.78,34.95,22.28,57.4-.44,6.67,1.13,10.69,7.05,14.35,46.42,28.71,77.52,69.47,94.34,121.3,10.92,33.66,10.72,68.34,9.29,103.07-.37,8.92-6.6,13.73-15.43,13.53-9.65-.21-14.55-6.58-14.98-15.49-.75-15.59-.31-31.23-.84-46.84-2.93-86.55-73.02-163.82-158.66-175.11-117.66-15.5-215.55,69.99-216.19,188.85-.04,6.58-2.25,15.06.97,19.25,3.71,4.81,11.61-1.27,17.88-1.43,32.19-.8,50.82-22.45,68.4-45.33,4.84-6.3,8.38-13.57,12.88-20.14,5.84-8.53,14.51-11.34,22.42-5.33,37.64,28.61,82.56,36.31,127.03,45.53,17.3,3.58,34.49,7.54,51.19,13.56,48.52,17.5,71.89,54.26,68.9,106.16-3.75,65.02-32.43,115.06-87.12,150.2-4.01,2.58-5.61,5.37-5.44,10.06.32,9.01.23,18.05.06,27.07-.25,13.04,5.56,21.36,17.87,26.18,38.4,15.03,76.62,30.52,114.91,45.82,37.24,14.88,52.26,37.08,52.27,77.3,0,26.04-.15,52.07.07,78.1.09,10.5-2.62,18.76-14.18,20.83-6.72,1.21-4.39,6.13-4.4,9.71-.14,42.7-.09,85.39-.09,128.09,0,2.78.03,5.55,0,8.33-.15,13.16-5.76,20.47-15.63,20.39-9.77-.09-15.56-7.54-15.58-20.64-.07-45.13-.26-90.26.17-135.38.08-8.37-2.37-10.92-10.44-10.19-7.23.66-14.61.65-21.84,0-8.05-.72-10.62,1.79-10.54,10.2.43,44.08.24,88.17.14,132.26-.01,4.46-.26,9.11-1.5,13.35-2.13,7.25-7.97,10.58-15.15,10.13-7.17-.45-12.46-4.39-13.86-11.89-.69-3.72-.65-7.6-.65-11.41-.05-31.24-.03-62.48-.03-93.73ZM794.43,555.11c5.37-.55,14.81-.78,23.96-2.55,80.41-15.49,131.65-85.02,122.83-166.9-2.17-20.13-12.01-35.81-30.35-45.69-25.51-13.76-53.84-17.62-81.57-23.51-32.61-6.93-65.19-14.22-94.45-30.82-9.46-5.36-13.72-5.16-20.18,4.07-21.89,31.23-49.43,54.06-89.92,56.58-12.21.76-19.65,9.5-20.29,20.08-.63,10.55,6.8,18.97,19.4,21.96,14.06,3.34,17.06,6.94,17.68,21.2,3.51,81.39,67.22,143.63,152.9,145.57ZM733.52,576.84c0,6.59-.21,12.1.04,17.6,1.03,22.67-6.77,40.85-26.97,52.41-4.9,2.8-3.04,4.96-.94,8.06,21.44,31.67,47.02,59.1,79.99,79.2,4.93,3,8.21,2.75,13.01-.18,32.68-19.88,57.95-47.12,79.39-78.36,2.88-4.2,3.57-6.37-1.74-9.48-18.1-10.59-25.78-27.26-26.18-47.81-.13-6.83.96-13.76-.98-21.18-38.35,12.17-76.6,11.8-115.61-.26ZM868.41,87.86c-1.48-14.99-7.33-25.75-17.06-34.26-24.14-21.11-52.3-25.64-82.69-18.61-23.08,5.34-41.47,17.19-50.63,40.3-1.41,3.55-3.37,7.96-.94,10.8,2.49,2.92,6.38-.54,9.43-1.49,30.59-9.51,61.66-12.09,93.48-8.16,16.15,2,31.63,6.57,48.4,11.41Z"/><path class="cls-1" d="M443.65,847.95c0-46.83.03-93.66-.04-140.49,0-5.97.37-11.75,3.11-17.2,11.49-22.91,22.92-45.86,34.42-68.77,3.55-7.07,8.9-11.82,17.28-10.53,6.7,1.03,11.12,5.24,12.83,12.04,1.4,5.55-1.08,10.21-3.37,14.83-9.54,19.24-19.06,38.5-28.91,57.58-2.96,5.73-4.18,11.43-4.17,17.86.13,89.85.09,179.69.09,269.54,0,2.43.02,4.86,0,7.28-.11,13.89-5.77,21.41-15.93,21.18-9.8-.22-15.27-7.5-15.29-20.76-.06-29.49-.02-58.97-.02-88.46,0-18.04,0-36.08,0-54.12Z"/><path class="cls-1" d="M141.98,847.23c0,46.82,0,93.64-.01,140.45,0,3.46.1,6.97-.4,10.38-1.15,7.97-6.3,12.44-13.99,12.96-7.67.51-13.56-3.16-15.51-10.97-1.07-4.3-1.28-8.9-1.28-13.36-.07-90.51-.12-181.03.06-271.54.02-7.86-1.39-14.88-5.02-21.86-9.74-18.74-19.01-37.73-28.52-56.59-2.76-5.48-4.22-11.13-1.63-16.97,2.45-5.54,7.24-8.61,13.06-9,6.4-.43,11.67,2.77,14.53,8.4,12.55,24.69,24.86,49.51,37.12,74.35,2.22,4.49,1.57,9.52,1.57,14.35.02,46.47.01,92.94.01,139.41Z"/><path class="cls-1" d="M252.95,829.36c.06,8.2-6.85,15.4-14.98,15.61-8.15.21-15.35-6.64-15.64-14.88-.31-8.96,6.51-16.02,15.4-15.92,8.49.1,15.15,6.75,15.21,15.19Z"/><path class="cls-1" d="M252.9,755.9c-.21,8.57-6.8,14.91-15.41,14.83-9-.08-15.58-7.09-15.12-16.1.43-8.37,7.57-14.91,15.85-14.52,8.35.4,14.89,7.43,14.68,15.79Z"/><path class="cls-1" d="M252.93,903.28c.07,8.54-6.39,15.17-14.94,15.35-9.01.18-15.86-6.64-15.67-15.61.18-8.43,7.03-15.12,15.39-15.02,8.31.1,15.15,6.97,15.22,15.28Z"/><path class="cls-1" d="M292.79,401.34c-19.37-.7-35.78-8.61-48.33-23.85-5.5-6.67-5.55-14.09.53-20.72,5.85-6.38,13.95-6.5,21.36-.57,2.16,1.73,4.01,3.83,6.1,5.64,12.98,11.19,28.39,11.06,41.35-.35,1.82-1.6,3.42-3.45,5.28-5,7.32-6.07,15.34-6.08,21.47-.13,6.17,5.99,6.63,14.32.56,21.51-12.49,14.78-28.54,22.63-48.32,23.48Z"/><path class="cls-1" d="M203.49,286.75c.02-20.13,4.77-27.29,15.92-27.01,10.64.26,15.38,7.5,15.29,23.81-.03,4.48-.15,9.07-1.11,13.41-1.85,8.38-7.72,12.13-16.07,11.45-7.95-.65-12.58-5.34-13.58-13.25-.48-3.77-.4-7.61-.44-8.4Z"/><path class="cls-1" d="M351.22,284.2c.2-3.81.1-7.66.65-11.42,1.16-7.9,5.97-12.46,13.9-12.92,8.36-.49,14,3.46,15.85,11.85,1.73,7.88,1.58,15.88.25,23.77-1.49,8.83-7.05,13.48-16,12.95-9.02-.53-13.6-6.06-14.27-14.87-.24-3.1-.04-6.24-.04-9.36h-.34Z"/><path class="cls-1" d="M789.54,493.59c-17.41-.44-33.2-8.73-45.73-23.39-6.08-7.11-5.79-15.65.63-21.4,6.57-5.89,13.69-6.03,20.67-.52,2.44,1.92,4.51,4.3,6.87,6.32,12.04,10.31,27.58,10.46,39.77.34,2.39-1.98,4.41-4.42,6.82-6.38,7.11-5.81,15.62-5.61,21.4.67,6.12,6.66,5.54,13.95.55,20.81-10.08,13.83-30.86,23.66-50.98,23.55Z"/><path class="cls-1" d="M733.35,376.02c0,3.45.19,6.91-.04,10.34-.59,8.98-5.95,14.2-14.45,14.71-8.62.51-14.67-4.43-15.8-13.14-.93-7.11-1.02-14.48-.27-21.61.96-9.09,7.93-14.75,15.99-14.36,8.16.4,13.94,6.57,14.61,15.79.2,2.74.03,5.52.03,8.27-.02,0-.05,0-.07,0Z"/><path class="cls-1" d="M881.34,376.51c0,2.76.14,5.53-.03,8.28-.59,9.88-6.51,16.68-15.05,16.42-9.26-.28-14.73-5.74-15.71-14.76-.71-6.47-.75-13.14-.02-19.61,1-8.91,6.15-14.6,15.6-14.84,8.49-.22,14.58,6.5,15.18,16.24.17,2.75.03,5.52.02,8.28Z"/></svg>