<?xml version="1.0" encoding="UTF-8"?><svg id="Capa_1" xmlns="http://www.w3.org/2000/svg" viewBox="0 0 315.98 315.65"><defs><style>.cls-1{fill:#000;stroke-width:0px;}</style></defs><path class="cls-1" d="M0,157.08C.52,69.4,71.84-.74,159.72,0c86.64.73,157.18,72.58,156.25,159.16-.93,86.22-71.61,156.41-157.59,156.49C70.83,315.73-.51,244.3,0,157.08ZM157.27,14.44C78.07,14.8,14.5,78.77,14.51,158.09c.01,79.39,65.17,143.83,144.86,143.28,78.52-.55,142.53-65.71,142.11-144.67-.42-78.8-65.12-142.62-144.22-142.26Z"/><path class="cls-1" d="M143.58,107.36c.01-17.37.05-34.74,0-52.11-.02-5.79.4-11.95,7.92-11.52,6.4.37,6.62,6.18,6.62,11.39-.04,31.27.36,62.54-.23,93.8-.18,9.21,2.9,14.29,10.79,18.7,18.18,10.15,35.84,21.22,53.65,32.03,4.21,2.55,9.47,5.32,5.99,11.47-3.34,5.88-8.3,3.81-12.86,1.08-21.7-13.01-43.33-26.13-65.12-38.97-6.16-3.63-6.88-8.96-6.81-15.23.18-16.87.06-33.75.07-50.62Z"/></svg>