<?xml version="1.0" encoding="UTF-8"?><svg id="Capa_1" xmlns="http://www.w3.org/2000/svg" viewBox="0 0 639.43 304.01"><defs><style>.cls-1{fill:#000;stroke-width:0px;}</style></defs><path class="cls-1" d="M323.61,0c15.93-.32,26.13,8.48,33.63,21.32,2.07,3.54,2.05,7.67,1.34,11.71-.44,2.52-1.71,4.31-4.28,4.98-2.73.71-5.06-.14-6.64-2.32-1.56-2.14-3.02-4.43-4.03-6.87-5.09-12.29-19.66-17.96-31.8-12.24-10.97,5.17-14.56,19.11-8,31.01,3.43,6.22,9.03,9.57,15.47,11.89,8.68,3.11,9.32,4.04,9.77,13.36.15,3.16.18,6.33.29,9.49.14,4.03,2.14,6.95,6.1,7.4,25.99,2.95,40.88,21.41,55.62,39.85,9.15,11.45,16.77,24.19,26.54,35.04,19.54,21.71,42.41,38.52,71.42,46.4,22.97,6.24,45.26,14.91,68.12,21.6,19.09,5.59,37.53,12.73,55.76,20.5,10.98,4.69,20.45,11.33,24.93,23.12,2.53,6.67,2.27,13.22-2.4,18.88-4.56,5.52-11.12,7.6-17.6,5.73-6.64-1.92-12.84-1.12-19.17-.07-8.78,1.45-17.62,1.83-26.41,1.18-18.21-1.35-36.27.48-54.41,1.28-24.12,1.05-48.27,1.04-72.43-.47-25.78-1.62-51.62-1.58-77.46-1.04-32.64.68-65.26,2.8-97.92,1.9-16-.44-31.96-.31-47.95-.04-24.14.41-48.26-.77-72.37-2.65-31.41-2.46-62.93-2.1-94.43-1.93-11.66.06-23.32-.15-34.97-.1-4.47.02-8.51-1.13-12.41-3.25-8.9-4.83-10.62-16.66-3.43-23.72,5.29-5.2,11.2-9.4,18.13-12.16,19.33-7.7,38.27-16.63,58.04-22.95,38.56-12.33,74.89-29.62,111.38-46.74,13.57-6.37,25.95-14.19,34.54-26.39,8.24-11.7,16.5-23.41,24.84-35.03,12.57-17.5,28.34-31.32,49.66-37.46,1.59-.46,3.26-.71,4.91-.81,4.53-.27,8.09-1.33,8.73-6.84.62-5.31-1.61-8.18-6.47-9.62-25.82-7.63-34.75-45.55-10.29-65.8C305.42,1.98,314.3.33,323.61,0ZM309.53,104.08c3.86-.11,5.31-2.86,6.42-5.92.6-1.64.22-2.83-1.73-3.33-7.29-1.87-14.38,2.27-16.3,9.5-.91,3.41-.12,5.54,3.75,5.73.05.83.07,1.66.16,2.48.21,2,.3,4.27,2.96,4.44,2.57.16,2.62-1.9,2.79-3.8.07-.76.39-1.79.95-2.16,2.99-1.99,2.34-4.38,1.01-6.93ZM278.53,120.3c.12-1.48.32-2.97.35-4.45.08-3.17,2.9-3.84,4.83-5.15,2.31-1.57,1.93,1.39,2.9,2.13,1.99,1.51,2.73.63,3.6-1.29,1.4-3.08,3.07-6.06,4.82-8.97.66-1.09,2.21-1.93.89-3.29-1.08-1.11-2.57-.61-3.69.14-5.5,3.69-11.3,7.02-16.1,11.61-3.65,3.49-2.32,7.76,2.53,9.14-.39,3.21,1.02,5.8,2.95,8.14,1.93,2.34,3.3,4.92,3.94,7.88l.13-.13c-4.4-3.16-7.36-7.56-10.2-12.03-2.04-3.21-6.34-6.56-8.4-5.25-4.44,2.81-8.53,6.91-10.76,12.15-.81,1.91-.27,3.63,1.28,4.95,1.03.89,2.3,1.61,3.65.88,1.73-.94,1.06-2.58.82-4.02-.25-1.51,0-2.74,1.81-2.86,1.58-.11,1.88,1.07,1.99,2.31.12,1.35.17,2.98,1.44,3.57,5.22,2.43,4.31,8.47,7.56,12.08-2.12-2.73-6.22-3.34-7.28-6.95-.42-1.42-.25-3.17-2.31-3.3-1.26-.08-2.31.52-2.66,1.82-.46,1.74-.28,3.58,1.5,4.32,3.83,1.59,3.19,4.93,3.81,7.83-1.37.57-2.83.13-2.93-.54-.67-4.63-6.79-5.67-6.82-10.82,0-1.71-1.87-3.1-3.95-3.26-.88-.07-1.63.3-2.07,1.1-1,1.8,1.03,7.23,3.01,8.29,4.12,2.21,5.12,6.81,7.67,10.22.47.63.32,1.7-.6,2.13-1.03.48-2.37.18-2.49-.84-.39-3.16-3.34-4.35-4.68-6.7-3.44-6.03-8.43-6.37-12.04-.61-5.11,8.14-9.11,16.97-17.03,23.19-7.33,5.75-14.22,12.07-22.04,17.21-7.64,5.02-17.11,7.03-23.41,14.36-.97,1.12-3.08,2.07-5.02.63-2.31-1.71-3.7-.32-4.72,1.66-.98,1.92-1.56,4.01-4.53,3.75-1.86-.17-2.2,1.64-2.63,3.12-.37,1.31.09,3.1-1.78,3.62-1.07-.4-1.07-1.28-1.22-2.08-.24-1.24.05-3.08-1.77-3.02-1.54.04-1.7,1.84-2.2,3.03-.7,1.66-.17,3.69-1.75,5.53-1.71-2.94-3.71-5.12-6.29-.93-.48.78-.56.13-.85-.22-3.15-3.81-4.26-.45-5.65,1.67-.8,1.21-.76,2.95-2.72,3.87-1.09-3.74-3.24-4.88-6.3-1.91-2.16,2.09-1.83,5.37-3.03,8.25-1.88-1.82-.74-5.48-3.95-5.05-3.9.52-3.52,4.66-5.26,7.36-2.89-6.89-7.46,3.74-10.56-1.27-5.36,1.97-2.44,7.94-5.52,11.76-.15-1.44-.21-2.25-.31-3.05-.21-1.58.31-3.86-1.75-4.2-2.59-.43-2.47,2.17-2.98,3.79-.62,2.02-1.04,4.1-1.54,6.16-1.17-1.61-1.13-2.93-1.19-4.24-.06-1.47.11-3.33-1.9-3.53-1.98-.19-2.25,1.63-2.58,3.08-.56,2.51-1.05,5.04-1.67,8.02-1.63-1.82-.93-3.36-1.09-4.75-.22-1.84-.17-4.06-2.67-4.03-2.21.03-2.9,2.06-3.15,3.92-.34,2.53-.44,5.1-.66,7.89-2.27-2.08-1.14-6.66-4.35-6.46-3.62.22-1.58,4.78-3.19,6.94-2.55-.88-.91-5.65-4.52-5.02-2.7.47-1.16,3.82-2.8,5.59-4.44-5.53-4.98-.57-6.26,2.48-1.66-1.14-2.48-3.65-4.98-2.47-2.45,1.15-2.34,3.38-2.35,5.57-.01,2.1.25,4.24-.86,7.06-.31-2.89-.51-5.02-.78-7.14-.21-1.64-.96-2.94-2.79-2.93-1.6,0-2.39,1.27-2.57,2.62-.4,2.91-.57,5.84-.85,8.98-1.79-1.49-1.03-3.55-1.67-5.15-.45-1.15-.16-3.09-1.96-3.01-1.52.07-1.87,1.79-2.15,3.03-.42,1.91-.57,3.89-.83,5.84-.56-.95-.59-1.89-.69-2.83-.19-1.77.21-3.97-2.08-4.62-2.47-.7-3.07,1.42-3.73,3.1-.77,1.94-1.64,2.27-3.22.7-2.35-2.34-3.59-.38-4.39,1.52-.67,1.59-.81,3.41-1.19,5.16-2.33-5.41-2.47-5.46-6.28-.88-.73.88-1.33,1.45-2.47.92-3.59-1.66-4.42.88-5.03,3.44-.57,2.4.88,5.78-3.97,5.58-1.27-.05-.87,2.95.04,4.38,1.76,2.78,4.6,3.71,7.71,3.92,4.21.28,8.38-.29,12.3-1.75,12.93-4.84,26.41-8.68,38.57-15.03,31.95-16.68,65.69-29.32,98.11-44.94,36.04-17.37,73.88-30.51,110.9-45.6,5.42-2.21,8.85-5.24,11.18-10.93,5.54-13.56,20.29-27.34,37.61-23.41,14.96,3.39,27.05,11.13,33.06,26.08,1.66,4.14,4.3,6.92,8.31,8.77,13.01,6,25.83,12.37,38.45,19.18,23.79,12.83,49.26,21.98,73.92,32.92,23.29,10.33,47.39,18.74,70.18,30.3,21.55,10.93,44.26,19.3,66.62,28.41,5.59,2.28,11.1,2.27,16.01-1.81,4.29-3.57,5.03-14.16.7-15.42-3.91-1.15-4.36-3.23-4.93-6.18-.27-1.43-.6-3.36-2.6-3-1.9.34-1.57,2.3-1.6,3.73-.06,2.67.42,5.41-.96,8.53-1.59-2.97-.78-5.49-.9-7.9-.12-2.52-.33-4.98-1.26-7.34-.52-1.33-1.28-2.51-2.91-2.05-1.33.38-1.45,1.67-1.44,2.89.03,2.49.2,5,.05,7.48-.09,1.64-.1,3.57-2.81,4.6,0-5.15.06-9.79-.03-14.43-.03-1.43,0-3.45-2-3.45-2.18,0-1.69,2.06-1.72,3.46-.07,3,.09,6-.1,8.99-.1,1.52.07,4.03-2.23,3.66-1.93-.31-.93-2.45-.65-3.78.8-3.83.35-7.64-.1-11.44-.19-1.62-.34-3.74-2.53-3.68-2.51.07-1.81,2.3-1.84,3.84-.07,3.16.04,6.33-.13,9.49-.07,1.44-.39,3.55-2.25,3.22-1.79-.32-.89-2.28-.48-3.38,1.66-4.49.22-8.92-.11-13.36-.14-1.94-1.13-3.86-3.32-3.68-2.56.21-2.26,2.33-1.98,4.25.24,1.64.59,3.34.42,4.96-.28,2.82.79,6.15-2.74,8.68-.08-1.44-.19-2.25-.16-3.05.18-4.67.24-9.34-.73-13.94-.51-2.41-1.49-4.82-4.45-4.37-3.09.48-2.25,3.12-2.09,5.24.2,2.54.65,5.12-.57,7.78-1.83-1.37-1.15-2.99-1.31-4.37-.23-1.98-.05-4.03-.47-5.96-.36-1.64-.34-4.28-2.71-4.12-2.53.18-1.86,2.71-1.88,4.43-.01,1.66.34,3.32.31,4.98-.03,1.38.32,3.08-2.02,3.86,0-3.46.08-6.74-.02-10.01-.1-3.13-1.01-7.14-4.28-6.81-3.72.38-1.38,4.31-1.25,6.65.17,2.97,1.04,5.93-1.62,8.4-.22-4.23-.59-8.31-1.82-12.27-.41-1.31.08-3.52-2.15-3.12-1.77.32-1.47,2.37-1.67,3.8-.28,2.04,1.26,4.3-.78,7.05-.64-4.84,0-8.94-1.61-12.69-.63-1.47-1.24-3.51-3.31-3.17-2.28.37-1.61,2.52-1.75,4.09-.25,2.72,1.06,5.66-1.2,8.96-1.22-4.96-.76-9.43-2.47-13.42-.54-1.26-1.2-3.15-3.15-2.36-1.54.62-1.04,2.18-.79,3.52.56,2.99,1.23,6.01-.73,10.16-1.04-5.35-1.79-9.49-2.67-13.6-.27-1.27-.8-2.83-2.51-2.53-1.61.28-1.71,1.79-1.69,3.19.02,2.13,0,4.26,0,7.16-1.24-4-2.13-7.19-3.26-10.3-.35-.96-.94-2.42-2.45-1.95-1.3.41-1.39,1.73-1.33,2.93.12,2.5.92,5.04-.13,7.84-1.33-.98-1.21-2.02-1.39-2.96-.49-2.61-.93-5.24-1.62-7.8-.48-1.78-1.34-3.84-3.61-3.4-2.14.42-1.66,2.56-1.59,4.17.07,1.74.49,3.52-.93,5.76-.51-2.63-.71-4.63-1.32-6.51-.53-1.65-.62-4.44-2.66-4.32-2.5.14-.92,3.06-1.72,4.56-.13.25-.42.41-.95.9-.51-1.71-.91-3.26-1.44-4.77-.61-1.76-1.48-3.94-3.45-3.79-2.67.21-1.43,2.81-1.73,4.44-.15.84.33,1.98-.98,2.33-1.24-1.12-.82-2.56-1.07-3.82-.44-2.19-.12-5.33-3.16-5.4-2.83-.06-1.48,3.2-2.45,4.75-.14.22-.54.27-.81.39-1.87-.72.35-7.97-5.01-3.12-.08.07-.99-.41-1.04-.72-.72-4.09-2.49-6.54-7.18-5.09-.32.1-1.03-.76-1.43-1.28-1.61-2.13-3.96-2.9-6.36-3.69-4.59-1.51-9.34-2.7-13.67-4.76-24.75-11.74-44.63-29.3-60.94-51.19-9.54-12.81-17.86-26.59-29.33-37.88-7.8-7.67-14.84-16.36-25.39-20.65-2.97-1.21-5.82-3.24-7.94,1.94-.91,2.21-4.35,3.31-2.91,6.86.5,1.24-.91,1.44-1.84,1.8-3.78,1.45-3.48,4.21-2.5,7.4.78,2.51,3.67,3.85,3.76,7.17-3.03-1.21-2.81-6.21-6.68-5.31-2.89.68-2.64-.56-2.22-2.55.4-1.84,1.38-5.02-1.46-4.65-3.7.49-2.79-1.44-2.92-3.26-.14-2-.77-3.44-3.09-2.02-3.24,1.97-3.7,7.87-.59,9.85,2.43,1.55,1.76,3.4,1.01,5.17-.77,1.81-2.04,3.41-3.07,5.11-.54.88-1.33,1.98-2.28,1.38-1.02-.64-1.04-2.16-.37-3.18.62-.94,1.73-1.54,2.5-2.4,1.19-1.32.86-2.79.09-4.17-.42-.74-1.1-1.41-2.01-1.17-1.63.44-1.49,1.98-1.76,3.24-.23,1.05.41,2.68-1.24,2.85-2.04.21-1.62-1.66-1.88-2.85-.37-1.72-1.3-2.93-3.11-2.15-2,.87-2.42,2.74-1.52,4.62.38.79,1.51,1.21,2.26,1.85,1.99,1.69,3.02,5.02,1.64,6.08-2.64,2.04-3.08,4.57-3.45,8.03-.95-1.16-1.4-1.62-1.74-2.15-.87-1.34-.96-3.52-3.03-3.59-2.49-.08-1.66,2.35-2.41,3.62-1.9,3.22-3.34,6.81-6.71,8.99-.92.6-1.63,1.28-2.48.18-.57-.73-.6-1.72.4-2.08,4.52-1.64,2.71-4.96,2.2-7.96,2.35-.82,6.35-6.78,5.85-8.79-.24-.97-.62-1.92-1.8-2.1-.9-.14-2.13.35-2.04.95.56,3.62-4,6.25-1.86,10.08-3.09.73-3.5-1.53-4.74-3.59-2.93-4.85-3.92-11.76-11.48-12.36ZM541.38,281.71c5.16,0,10.32.03,15.48-.02,1.5-.01,3.32-.12,3.5-2.01.15-1.54-1.45-2-2.68-2.55-17.46-7.87-34.81-15.99-52.4-23.57-27.22-11.74-54.92-22.39-81.84-34.83-22.22-10.27-44.35-20.73-65.92-32.34-3.58-1.92-5.45-4.79-6.32-8.49-1.57-6.73-5.54-11.66-11.29-15.25-9.45-5.9-10.47-6.25-12.87,3.73-.7,2.93-2.43,5.1-5.9,5.12-3.58.02-5.99-1.58-7.36-4.9-.78-1.87-1.18-3.78-1.33-5.8-.41-5.35-2.18-6.46-6.56-3.47-7.29,4.99-12.8,11.58-15.77,20.05-1.12,3.2-2.29,6.04-5.9,7.5-23.49,9.43-47.08,18.65-70.32,28.67-31.96,13.78-63.62,28.28-95.46,42.35-15.38,6.8-31.16,12.74-45.57,21.58-1.33.82-3.62,1.18-3,3.36.57,2.01,2.74,1.43,4.32,1.63.82.1,1.66.04,2.5.06,42.63.87,85.24,1.77,127.91,1.34,48.64-.49,97.24-2.9,145.93-1.82,39.12.87,78.28-.15,117.43-.16,24.48,0,48.95-.26,73.43-.16ZM307.99,292.91c2.93,2.77,5.43,7.78,9.08,1.16.59-1.06,1.89-.99,2.49,0,3.97,6.64,9.14-2.6,13.31,1.04,0,0,.23-.21.34-.34,1.31-1.57,2.54-1.06,3.83.07.88.77,1.85,1.58,3.11.78,3.75-2.36,7.74-.8,11.64-1.02,3.06-.17,5.98-1.51,8.95.38.09.06.97-.82,1.24-1.38,1.34-2.85,2.15-1.87,3.61.09,1.85,2.49,4.68,3.64,6.05-.21,1.54-4.35,2.53-3.03,4.04-.22.91,1.68,2.32,2.6,4.1,1.66,1.77-.93,1.63-2.76,1.25-4.44-.64-2.82-2.65-3.44-5.27-3.42-6.49.03-13,.28-19.45-.23-32.13-2.54-64.24-.93-96.36.16-17.47.59-35.02-.31-52.45.74-17.2,1.03-34.65-2.76-51.65,2.79-3.49,1.14-7.5-3.07-11.23.27-.08.07-.99-.66-1.4-1.11-1.31-1.43-2.78-1.86-4.41-.65-1.04.78-1.88,1.21-3.01.11-1.2-1.16-2.65-1.54-3.93-.1-.95,1.07-1.09,2.42-.72,3.77.45,1.65,1.81,2.96,3.25,2.46,3.12-1.09,6.39-.45,9.26-.24,5.14.38,10.49-3.24,15.47.67,1.06.84,2.2-.1,2.86-1.21,1.8-3.03,4.49-2.78,6.88-1.31,3.72,2.28,7.67,2.92,11.9,2.89,23.99-.14,47.97.05,71.95.51,13.96.27,27.93,1.14,41.9-.34,2.45-.26,4.91-2.4,7.18-.98,3.25,2.03,4.84.54,6.2-2.34ZM322.78,78.18c.28-10.11-.24-10.86-9.75-14.6-1.7-.67-3.39-1.4-5-2.27-12.31-6.72-18.07-22.63-12.59-35.31,3.94-9.1,12.01-13.2,20.92-15.5,13.89-3.58,26.53,3.47,31.29,16.88.44,1.25.93,2.52,1.61,3.64.69,1.13,1.66,2.33,3.21,1.78,1.73-.61,1.29-2.13.92-3.39-1.16-4.02-2.68-7.86-5.2-11.27-11.96-16.16-30.44-16.44-46.37-6.63-10.49,6.46-14.83,17.04-13.26,29.3,1.49,11.68,5.43,22.53,17.99,26.48,8.68,2.73,15.85,5.54,13.32,16.74-.22.96.13,2.21,1.37,2.29,1.3.08,1.48-1.13,1.51-2.14.05-2,.02-4,.02-6ZM560.41,289.95c2,.18,1.83,1.57,2.13,2.62.6,2.09,1.97,3.28,4.06,2.45,2.3-.91,1.7-2.89,1.04-4.67-1.65-4.49-7.97-6.78-11.3-3.58-2.07,1.99-2.98,2.97-5.28.57-1.51-1.58-2.76-.45-3.02,1.4-.3,2.17-.4,4.63,1.68,5.88,2.94,1.77,6.25-.12,9.45.11,2.34.17.24-3.09,1.23-4.79ZM576.05,289.56c-1.19-1.37-2.19-2.68-3.35-3.83-.72-.71-1.78-1.19-2.59-.11-1.5,2.01-.29,4.19-.13,6.28.12,1.59,1.27,3.49,2.68,3.04,4.36-1.39,8.77,1.73,13.17-.6,1.29-.69,2.37-.84,2.28-2.44-.09-1.47-.73-2.73-2.39-2.58-1.57.15-2.76.21-3.9-1.28-2.73-3.58-4.54-2.04-5.76,1.52ZM463.42,291.81c-.6-2.32-.43-5.5-4-5.79-2.87-.24-3.01,1.96-2.8,4.08.26,2.6.08,5.71,3.9,5.68,2.17-.02,3.06-1.66,2.9-3.97ZM324.64,159.26c-.14-2.69-1.22-4.34-3.94-4.32-2.3.02-3.4,1.4-3.1,3.55.36,2.57.47,6.03,3.87,6.02,2.88,0,2.72-3.22,3.17-5.25ZM325.4,94.05c-1.75.18-4.44-.1-3.9,2.03.68,2.72,3.44,4.92,5.9,5.81,1.86.67,3.05-2.43,3.19-4.28.29-3.9-3.15-2.93-5.19-3.55ZM447.44,290.48c0,2.34.05,4.71,3.05,4.87,2.8.15,3.26-1.95,3-4.09-.27-2.21,0-5.21-3.19-5.4-3.27-.19-2.71,2.64-2.86,4.63ZM384.39,290.75c.04,2.59.76,4.68,3.86,4.67,2.07,0,3.6-.84,3.47-3.24-.15-2.8-1.42-4.89-4.39-5.11-2.44-.19-2.95,1.65-2.94,3.68ZM409.57,291.02c-.25-2.21-.78-4.54-3.55-4.41-2.64.12-2.72,2.41-2.6,4.47.12,2.01.23,4.26,3.01,4.17,2.52-.09,3.1-2.03,3.14-4.23ZM480.58,292.33c.29,1.68.18,4.28,3.21,4.25,2.3-.02,3.07-1.94,2.64-3.93-.44-2.08.13-5.28-3.23-5.28-2.78,0-2.52,2.54-2.62,4.96ZM532.97,289.99c.55,2.29.37,5.3,3.87,5.3,1.99,0,2.98-1.58,2.58-3.44-.54-2.43-1.5-5.04-4.41-5.24-1.75-.12-2.15,1.7-2.03,3.37ZM465.91,291.28c.14,2.32.68,4.64,3.71,4.75,1.57.06,2.42-1.39,2.02-2.78-.69-2.36-.28-5.91-3.8-6.09-2-.1-1.89,2.31-1.93,4.12ZM314.88,106.36c-.11,1.46-.39,3.26,1.43,3.21,3.51-.08,3.71-3.25,4.44-5.7.4-1.34.13-3.11-1.5-3.11-3.67,0-3.33,3.48-4.37,5.6ZM540.45,290.3c.22,2.24.53,4.53,3.22,4.87,2.09.27,2.91-1.33,2.82-3.16-.12-2.42-.95-4.8-3.64-5.14-2.21-.28-2.35,1.77-2.39,3.42ZM526.29,289.71c.78,1.94-.32,5.28,3.37,5.48,1.7.09,2.97-1.3,2.56-2.92-.59-2.29-1.19-5.09-4.1-5.54-1.69-.26-1.94,1.38-1.83,2.98ZM510.11,291.94c-.8-2.02-.22-5.26-3.61-5.56-1.69-.15-1.91,1.64-1.68,2.99.36,2.19-.08,5.07,2.91,5.7,1.96.41,2.41-1.27,2.38-3.12ZM523.86,290.94c-.37-1.82.19-4.43-2.56-4.64-2.41-.18-2.82,1.92-2.76,3.84.06,1.97.03,4.4,2.62,4.66,2.53.25,2.63-1.94,2.7-3.86ZM105.44,287.21c-2.42.35-3.4,1.91-3.5,4.1-.09,1.92.86,3.21,2.82,3.33,2.31.15,3.18-1.39,3.23-3.43.04-1.86-.15-3.69-2.54-4ZM489.58,291.62c.17,1.96-.31,4.54,2.41,4.75,2.06.16,2.55-1.9,2.35-3.66-.23-2.07,0-5-2.68-5.24-2.72-.24-1.81,2.52-2.08,4.15ZM399.97,291.06c.03-2.02-.12-4-2.44-4.32-2.11-.29-2.9,1.27-2.89,3.14,0,2.03.19,4.34,2.71,4.58,2.14.2,2.34-1.88,2.63-3.4ZM96.27,287.18c-2.38.18-3.2,1.65-3.29,3.67-.09,2.18,1,3.54,3.22,3.41,2.31-.13,2.83-1.9,2.82-3.88-.01-1.89-.76-3.16-2.75-3.2ZM502.17,292.48c-.74-1.87-.02-4.93-3.11-5.27-1.78-.19-2.34,1.58-2.14,3.17.28,2.23.31,4.9,3.4,5.09,1.7.1,1.87-1.48,1.85-2.99ZM424.52,291.46c-.46-1.62.68-4.63-2.35-4.4-2.66.21-1.8,3.1-2.06,4.91-.24,1.71-.03,3.6,2.35,3.41,2.33-.19,1.98-2.21,2.06-3.93ZM412.62,290.61c.34,1.56-.33,4.08,2.19,4.15,2.49.08,2.29-2.33,2.37-4.08.08-1.89-.24-4.02-2.57-3.97-2.16.05-1.92,2.2-1.98,3.89ZM332.71,103.24c-2.29.17-2.99,1.81-3.15,3.69-.14,1.72.26,3.48,2.43,3.5,2.06.01,2.58-1.73,2.85-3.4.28-1.77-.09-3.26-2.13-3.79ZM58.65,290.27c-.09-1.7-.4-3.59-2.5-3.49-1.93.1-2.38,1.97-2.52,3.68-.15,1.83.35,3.57,2.42,3.47,1.91-.09,2.43-1.9,2.6-3.67ZM91.03,290.58c-.29-1.89-1.14-3.34-3.18-3.14-2.17.21-2.38,2.03-2.28,3.75.09,1.64.82,3.04,2.7,2.83,1.9-.21,2.77-1.59,2.76-3.44ZM427.43,290.65c.24,1.48-.13,3.79,2.22,4.19,2.27.39,2.12-1.7,1.99-3.09-.16-1.8.74-4.52-2.17-4.76-1.94-.16-1.92,1.88-2.05,3.66ZM113.67,287.48c-1.99.04-2.64,1.25-2.74,2.92-.1,1.74.06,3.56,2.16,3.89,2.01.32,2.41-1.47,2.63-2.92.27-1.72-.04-3.34-2.05-3.89ZM438.97,291.38c-.41-1.74.36-4.36-2.41-4.58-1.9-.15-2.07,1.78-2.03,3.26.05,1.92-.12,4.33,2.49,4.59,2.11.21,1.8-1.81,1.95-3.26ZM301.26,117.85c-1.62.11-2.56.97-2.31,2.53.29,1.77.75,3.68,3.12,3.74,1.39.03,2.09-.94,2.02-2.24-.1-1.9-.71-3.54-2.83-4.02ZM71.35,290.44c-.17-1.53-.6-3.25-2.28-3.35-1.88-.1-2.23,1.65-2.12,3.2.1,1.46.29,3.35,2.11,3.36,1.66,0,2.33-1.55,2.28-3.21ZM120.32,294.82c1.72-.09,2.2-1.34,2.26-2.73.06-1.49.04-3.34-1.78-3.64-1.95-.32-2.4,1.43-2.56,2.97-.17,1.6.13,3.02,2.08,3.4ZM478.08,291.79c-.26-1.64-.07-3.76-2.51-4-1.55-.16-1.88,1.15-1.63,2.35.37,1.81.14,4.3,2.83,4.41,1.5.06,1.29-1.55,1.32-2.76ZM295.64,119.99c-.23-1.59-1.05-2.74-2.82-2.85-1.49-.09-2.16.9-1.97,2.23.22,1.53.9,2.97,2.74,3.02,1.42.04,1.95-1.02,2.05-2.39ZM41.69,289.95c-1.18.31-2.84.55-3.11,2.26-.28,1.76,1.27,2.04,2.59,2.12,1.52.08,3.12-.19,3.32-2.03.18-1.61-1.11-2.15-2.8-2.34ZM129.28,291.52c-.37-.92-.09-2.67-1.92-2.73-1.82-.06-1.98,1.51-2,2.85-.02,1.4.33,2.8,2.12,2.74,1.53-.06,1.63-1.39,1.79-2.85ZM444.89,289.79c-.41-.97.11-3.01-1.96-2.98-1.32.02-1.54,1.56-1.39,2.71.2,1.49-.18,3.75,1.91,3.8,1.49.04,1.26-1.96,1.44-3.53ZM516.17,290.75c-.28-1.43.12-3.44-2.07-3.82-1.28-.22-1.63.97-1.52,1.98.19,1.76.17,3.93,2.41,4.29,1.04.17,1.12-1.36,1.18-2.45ZM82.65,290.76c-.16-1.15-.22-2.53-1.81-2.45-1.66.08-2.13,1.43-2.11,2.85.03,1.35.9,2.24,2.22,2.18,1.5-.07,1.63-1.38,1.7-2.58Z"/><path class="cls-1" d="M239.65,182.75c-1.34-1.44-2.47-2.63-3.57-3.84-.85-.93-2.37-1.76-1.22-3.28,1.1-1.44,2.01.04,2.97.49.97.47,2.01.63,2.63-.41.53-.9.38-1.96-.33-2.79-1.01-1.16-3.25-2.28-.95-3.84,1.69-1.14,3.27.95,4.1,1.93,1.67,1.99,4.13,4.88-.54,6.44-2.63.88-1.22,3.55-3.08,5.29Z"/><path class="cls-1" d="M279.8,141.34c-2.6-3.62-7.31-5.32-8.6-9.88-.48-1.71-2.07-1.96-3.41-2.58-1.07-.5-1.32-1.53-.91-2.52.36-.88.86-1.95,1.62-2.37,1.17-.66,1.6.63,2.17,1.4,3.68,4.93,7,10.08,9.13,15.95Z"/><path class="cls-1" d="M258.64,164.86c.05.99.22,2.08-1.05,2.48-1.19.37-2.03-.27-2.26-1.33-.49-2.26-1.35-3.89-3.87-4.58-1.81-.5-1.42-2.4-1.21-3.88.12-.85.57-1.73,1.48-1.78,2.04-.12,1.59,1.73,1.98,2.85.43,1.26,1.45,1.76,2.54,2.21,1.81.75,2.3,2.27,2.4,4.03Z"/><path class="cls-1" d="M243.33,161.01c1.9-.03,6.34,5.28,5.94,7.16-.1.46-.34,1.22-.59,1.26-3.82.55-3.31-4.44-6.47-5.12-1.06-.23-.7-2.01.26-2.94.21-.2.57-.25.87-.36Z"/><path class="cls-1" d="M286.91,152.13c-.57.12-.75.21-.89.18-3.28-.82-3.42-3.56-3.72-6.17-.08-.68.3-1.58,1-1.32,2.52.93,2.73,3.46,3.46,5.59.15.44.1.95.16,1.71Z"/><path class="cls-1" d="M285.57,136.19c.8.09,1.61.15,2.41.29,1.66.28,2.01,1.41,1.81,2.89-.11.8-.11,1.86-1.02,1.99-1.69.24-2.06-1.34-2.56-2.45-.38-.85-.35-1.88-.51-2.84,0,0-.13.13-.13.13Z"/><path class="cls-1" d="M309.71,104.2c-2-.13-3.71.5-3.87,2.67-.21,2.92-2.04,3.28-4.29,3.34.2-2.11-.02-4.39.73-6.28.81-2.06,2.48-4.37,4.83-4.36,2.55,0,2.01,2.89,2.6,4.63Z"/></svg>